<?xml version="1.0" encoding="UTF-8"?>
<svg width="18px" height="18px" viewBox="0 0 18 18" version="1.1" xmlns="http://www.w3.org/2000/svg" xmlns:xlink="http://www.w3.org/1999/xlink">
    <title>Icons / Social / WhatsApp</title>
    <g id="Symbols" stroke="none" stroke-width="1" fill="none" fill-rule="evenodd" opacity="1">
        <g id="Global-/-Footer-/-Desktop" transform="translate(-1137.000000, -100.000000)" fill="#FFFFFF">
            <g id="Socials">
                <g transform="translate(1135.000000, 60.000000)">
                    <g id="Icons" transform="translate(1.000000, 39.000000)">
                        <g id="Icons-/-Social-/-WhatsApp">
                            <path d="M14.2035451,11.7605027 C13.9837264,11.6401282 12.904161,11.0574834 12.7015673,10.975164 C12.4991738,10.8929448 12.3514596,10.8500826 12.1936308,11.0685995 C12.0360022,11.2865154 11.5880527,11.7746232 11.4523559,11.9191327 C11.3159581,12.0637424 11.1848681,12.0771619 10.964849,11.9564869 C10.7456312,11.8365129 10.033098,11.5729307 9.20679986,10.7786791 C8.56376746,10.1604827 8.14205598,9.4108958 8.01977868,9.18216414 C7.89730109,8.95313204 8.01887737,8.83646287 8.13514596,8.7293075 C8.23949727,8.63256722 8.36878474,8.47594011 8.4856542,8.349657 C8.60212308,8.22327375 8.64328276,8.13144059 8.72339893,7.984828 C8.8035151,7.83821541 8.77126834,7.70612388 8.71929297,7.59205848 C8.66741776,7.47839367 8.26112864,6.35997196 8.09148265,5.90501227 C7.92173652,5.45005258 7.73266236,5.51765059 7.60197286,5.51254319 C7.47148365,5.50803665 7.3229683,5.48350108 7.1736518,5.47799309 C7.02443543,5.47228481 6.77968054,5.51935306 6.56637124,5.73546643 C6.35286165,5.95167994 5.75439387,6.47143358 5.71313404,7.57303089 C5.67187422,8.67392719 6.43387912,9.76831406 6.54013319,9.92153623 C6.64648741,10.075159 7.9952431,12.4623204 10.2366932,13.4440439 C12.478644,14.4254669 12.490361,14.126233 12.9016574,14.1042011 C13.3132542,14.0825697 14.2461069,13.6120875 14.452406,13.0968404 C14.6585048,12.581393 14.6750288,12.1333433 14.6226528,12.037905 C14.5700766,11.9425667 14.4232637,11.8805768 14.2035451,11.7605027 Z M10.0922838,17.0673977 C8.61003455,17.0673977 7.22943268,16.622753 6.07666116,15.8606479 L3.27169396,16.7585499 L4.18341595,14.0480196 C3.30954885,12.8443743 2.79340043,11.3659306 2.79340043,9.76831406 C2.79340043,5.74317761 6.06784838,2.46862951 10.0922838,2.46862951 C14.1175204,2.46862951 17.3917681,5.74317761 17.3917681,9.76831406 C17.3917681,13.7930499 14.1175204,17.0673977 10.0922838,17.0673977 Z M10.0922838,1 C5.25006259,1 1.32447048,4.92549196 1.32447048,9.76831406 C1.32447048,11.424816 1.78423714,12.9741625 2.58259476,14.295879 L1,19 L5.85443894,17.4459466 C7.1107606,18.1403535 8.55525512,18.536528 10.0922838,18.536528 C14.9353062,18.536528 18.860698,14.6105353 18.860698,9.76831406 C18.860698,4.92549196 14.9353062,1 10.0922838,1 L10.0922838,1 Z" id="Fill-1"></path>
                        </g>
                    </g>
                </g>
            </g>
        </g>
    </g>
</svg>
